<svg width="30" height="30" fill="none" xmlns="http://www.w3.org/2000/svg"><g clip-path="url(#a)"><path d="M15 11.428a3.573 3.573 0 1 0 .003 7.146A3.573 3.573 0 0 0 15 11.428Zm8.351-2.745a3.615 3.615 0 0 0-2.036-2.037c-1.407-.555-4.755-.43-6.315-.43-1.56 0-4.905-.13-6.315.43a3.616 3.616 0 0 0-2.037 2.037c-.554 1.406-.43 4.757-.43 6.316 0 1.56-.124 4.907.433 6.318a3.616 3.616 0 0 0 2.036 2.036c1.407.555 4.755.43 6.316.43 1.56 0 4.904.13 6.314-.43a3.616 3.616 0 0 0 2.037-2.036c.559-1.407.43-4.758.43-6.317 0-1.559.129-4.906-.43-6.317h-.003ZM15 20.49a5.492 5.492 0 1 1 0-10.983 5.492 5.492 0 0 1 0 10.983Zm5.717-9.93a1.282 1.282 0 1 1 1.186-.791 1.28 1.28 0 0 1-1.183.793l-.003-.003ZM26.786 0H3.214A3.214 3.214 0 0 0 0 3.214v23.572A3.214 3.214 0 0 0 3.214 30h23.572A3.214 3.214 0 0 0 30 26.786V3.214A3.214 3.214 0 0 0 26.786 0Zm-1.147 19.42c-.086 1.716-.478 3.237-1.73 4.486-1.254 1.25-2.773 1.65-4.487 1.731-1.769.1-7.071.1-8.84 0-1.716-.086-3.231-.479-4.486-1.73-1.255-1.253-1.65-2.774-1.731-4.487-.1-1.77-.1-7.073 0-8.84.086-1.716.473-3.237 1.73-4.486 1.258-1.25 2.778-1.645 4.487-1.727 1.769-.1 7.071-.1 8.84 0 1.716.087 3.236.48 4.486 1.731 1.25 1.253 1.65 2.774 1.731 4.49.1 1.763.1 7.061 0 8.832Z" fill="#000"/></g><defs><clipPath id="a"><path fill="#fff" d="M0 0h30v30H0z"/></clipPath></defs></svg>