<svg width="30" height="30" fill="none" xmlns="http://www.w3.org/2000/svg"><g clip-path="url(#a)"><path d="M26.786 0H3.214A3.215 3.215 0 0 0 0 3.214v23.572A3.215 3.215 0 0 0 3.214 30h23.572A3.215 3.215 0 0 0 30 26.786V3.214A3.215 3.215 0 0 0 26.786 0ZM23.51 10.634c.014.187.014.382.014.57 0 5.805-4.42 12.495-12.496 12.495-2.491 0-4.801-.724-6.743-1.97.355.041.696.055 1.058.055a8.805 8.805 0 0 0 5.45-1.875 4.398 4.398 0 0 1-4.104-3.047c.676.1 1.285.1 1.982-.08a4.392 4.392 0 0 1-3.516-4.313v-.054a4.39 4.39 0 0 0 1.982.556 4.383 4.383 0 0 1-1.955-3.656c0-.817.214-1.567.596-2.217a12.47 12.47 0 0 0 9.054 4.594c-.623-2.98 1.607-5.397 4.285-5.397 1.266 0 2.404.529 3.208 1.386a8.605 8.605 0 0 0 2.786-1.058 4.38 4.38 0 0 1-1.929 2.417 8.74 8.74 0 0 0 2.531-.683 9.244 9.244 0 0 1-2.203 2.277Z" fill="#000"/></g><defs><clipPath id="a"><path fill="#fff" d="M0 0h30v30H0z"/></clipPath></defs></svg>