<svg width="30" height="30" fill="none" xmlns="http://www.w3.org/2000/svg"><path d="M23.658 22.383h-1.545l.007-.904a.73.73 0 0 1 .728-.73h.098c.401 0 .73.328.73.73l-.018.904Zm-5.794-1.937c-.392 0-.713.265-.713.59v4.397c0 .325.32.59.713.59.393 0 .714-.265.714-.59v-4.397c0-.325-.32-.59-.714-.59Zm9.409-2.46v8.366c0 2.006-1.727 3.648-3.837 3.648H7.656c-2.112 0-3.838-1.642-3.838-3.648v-8.366c0-2.007 1.726-3.649 3.838-3.649h15.78c2.11 0 3.837 1.643 3.837 3.65ZM8.708 27.26v-8.812h1.955v-1.305l-5.214-.008v1.284l1.628.004v8.837h1.631Zm5.864-7.5h-1.63v4.706c0 .68.04 1.021-.003 1.141-.133.365-.729.752-.961.04-.04-.125-.005-.502-.006-1.149l-.006-4.738h-1.622l.005 4.664c.001.715-.016 1.248.006 1.49.04.428.025.927.419 1.211.734.533 2.14-.08 2.492-.84l-.003.971 1.31.002V19.76h-.001Zm5.217 5.389-.003-3.916c-.002-1.493-1.11-2.387-2.614-1.18l.007-2.911-1.63.002-.007 10.05 1.34-.02.121-.625c1.713 1.583 2.789.498 2.786-1.4Zm5.104-.52-1.223.007-.003.167v.688a.67.67 0 0 1-.668.667h-.24a.67.67 0 0 1-.668-.667v-1.809h2.8V22.62c0-.776-.02-1.552-.083-1.996-.2-1.403-2.156-1.626-3.143-.908a1.86 1.86 0 0 0-.685.929c-.14.403-.208.955-.208 1.655v2.335c0 3.882 4.68 3.334 4.121-.005Zm-6.272-12.677c.084.206.214.373.392.5.175.123.4.186.667.186.235 0 .444-.064.625-.196.18-.132.333-.328.457-.59l-.03.645h1.817V4.706h-1.43v6.064a.599.599 0 0 1-.597.597.599.599 0 0 1-.595-.598V4.707h-1.494V9.96c0 .67.012 1.115.032 1.342.02.224.071.44.156.649Zm-5.51-4.4c0-.748.063-1.332.185-1.753.124-.42.347-.757.669-1.011.32-.256.732-.384 1.232-.384.42 0 .781.084 1.082.246.303.164.536.377.698.64.164.263.276.534.336.81.061.282.091.705.091 1.277v1.97c0 .723-.029 1.254-.084 1.592a2.538 2.538 0 0 1-.358.946 1.707 1.707 0 0 1-.7.648c-.287.14-.616.21-.987.21-.414 0-.763-.058-1.05-.179a1.44 1.44 0 0 1-.671-.54 2.407 2.407 0 0 1-.342-.873c-.068-.341-.1-.854-.1-1.537V7.552Zm1.424 3.095c0 .44.326.801.723.801.397 0 .722-.36.722-.802V6.5c0-.44-.325-.8-.722-.8-.397 0-.723.36-.723.8v4.147Zm-5.03 2.094h1.714l.002-5.976 2.027-5.118h-1.876l-1.078 3.802-1.092-3.813H7.345l2.156 5.132.003 5.973Z" fill="#000"/></svg>